<mxfile host="app.diagrams.net" modified="2024-02-27T08:39:41.722Z" agent="Mozilla/5.0 (Windows NT 10.0; Win64; x64) AppleWebKit/537.36 (KHTML, like Gecko) Chrome/120.0.0.0 Safari/537.36" etag="niTL2zNkyRhghns9tXJV" version="23.1.6" type="github">
  <diagram name="Page-1" id="ob4KCghaVc6KkU1SnZAa">
    <mxGraphModel dx="880" dy="434" grid="1" gridSize="10" guides="1" tooltips="1" connect="1" arrows="1" fold="1" page="1" pageScale="1" pageWidth="827" pageHeight="1169" math="0" shadow="0">
      <root>
        <mxCell id="0" />
        <mxCell id="1" parent="0" />
        <mxCell id="6iNviXchWp0u0mHTnAX3-7" style="edgeStyle=orthogonalEdgeStyle;rounded=0;orthogonalLoop=1;jettySize=auto;html=1;entryX=0;entryY=0.5;entryDx=0;entryDy=0;endArrow=none;endFill=0;" edge="1" parent="1" source="6iNviXchWp0u0mHTnAX3-1" target="6iNviXchWp0u0mHTnAX3-4">
          <mxGeometry relative="1" as="geometry" />
        </mxCell>
        <mxCell id="6iNviXchWp0u0mHTnAX3-1" value="Pasien" style="whiteSpace=wrap;html=1;align=center;" vertex="1" parent="1">
          <mxGeometry x="60" y="140" width="100" height="40" as="geometry" />
        </mxCell>
        <mxCell id="6iNviXchWp0u0mHTnAX3-9" style="edgeStyle=orthogonalEdgeStyle;rounded=0;orthogonalLoop=1;jettySize=auto;html=1;entryX=0;entryY=0.5;entryDx=0;entryDy=0;endArrow=none;endFill=0;" edge="1" parent="1" source="6iNviXchWp0u0mHTnAX3-2" target="6iNviXchWp0u0mHTnAX3-5">
          <mxGeometry relative="1" as="geometry" />
        </mxCell>
        <mxCell id="6iNviXchWp0u0mHTnAX3-2" value="Rekam Medis" style="whiteSpace=wrap;html=1;align=center;" vertex="1" parent="1">
          <mxGeometry x="370" y="140" width="100" height="40" as="geometry" />
        </mxCell>
        <mxCell id="6iNviXchWp0u0mHTnAX3-3" value="Dokter" style="whiteSpace=wrap;html=1;align=center;" vertex="1" parent="1">
          <mxGeometry x="690" y="140" width="100" height="40" as="geometry" />
        </mxCell>
        <mxCell id="6iNviXchWp0u0mHTnAX3-8" style="edgeStyle=orthogonalEdgeStyle;rounded=0;orthogonalLoop=1;jettySize=auto;html=1;entryX=0;entryY=0.5;entryDx=0;entryDy=0;endArrow=none;endFill=0;" edge="1" parent="1" source="6iNviXchWp0u0mHTnAX3-4" target="6iNviXchWp0u0mHTnAX3-2">
          <mxGeometry relative="1" as="geometry" />
        </mxCell>
        <mxCell id="6iNviXchWp0u0mHTnAX3-4" value="Mendapatkan" style="shape=rhombus;perimeter=rhombusPerimeter;whiteSpace=wrap;html=1;align=center;" vertex="1" parent="1">
          <mxGeometry x="210" y="130" width="120" height="60" as="geometry" />
        </mxCell>
        <mxCell id="6iNviXchWp0u0mHTnAX3-10" style="edgeStyle=orthogonalEdgeStyle;rounded=0;orthogonalLoop=1;jettySize=auto;html=1;entryX=0;entryY=0.5;entryDx=0;entryDy=0;endArrow=none;endFill=0;" edge="1" parent="1" source="6iNviXchWp0u0mHTnAX3-5" target="6iNviXchWp0u0mHTnAX3-3">
          <mxGeometry relative="1" as="geometry" />
        </mxCell>
        <mxCell id="6iNviXchWp0u0mHTnAX3-5" value="Memberikan" style="shape=rhombus;perimeter=rhombusPerimeter;whiteSpace=wrap;html=1;align=center;" vertex="1" parent="1">
          <mxGeometry x="510" y="130" width="120" height="60" as="geometry" />
        </mxCell>
        <mxCell id="6iNviXchWp0u0mHTnAX3-15" value="Binary" style="text;html=1;align=center;verticalAlign=middle;resizable=0;points=[];autosize=1;strokeColor=none;fillColor=none;" vertex="1" parent="1">
          <mxGeometry x="240" y="98" width="60" height="30" as="geometry" />
        </mxCell>
        <mxCell id="6iNviXchWp0u0mHTnAX3-16" value="Binary" style="text;html=1;align=center;verticalAlign=middle;resizable=0;points=[];autosize=1;strokeColor=none;fillColor=none;" vertex="1" parent="1">
          <mxGeometry x="540" y="98" width="60" height="30" as="geometry" />
        </mxCell>
      </root>
    </mxGraphModel>
  </diagram>
</mxfile>
